# xmcd
#
# Track frame offsets: 
#        150
#        24792
#        43465
#        61890
#        102265
#        114605
#        129492
#        145765
#        162475
#
# Disc length: 2355 seconds
#
# Revision: 1
# Processed by: cddbd v1.5.2PL0 Copyright (c) Steve Scherf et al.
# Submitted via: ExactAudioCopyFreeDBPlugin 1.0
#
DISCID=79093109
DTITLE=Taj Mahal - The Complete Columbia Albums Collection [CD13)
DYEAR=1976
DGENRE=Blues
TTITLE0=Satisfied 'n Tickled Too
TTITLE1=New E-Z Rider Blues
TTITLE2=Black Man, Brown Man
TTITLE3=Baby Love
TTITLE4=Ain't Nobody's Business
TTITLE5=Misty Morning Ride
TTITLE6=Easy to Love
TTITLE7=Old Time Song - Old Time Love
TTITLE8=We Tune
EXTD=YEAR: 1976
EXTT0=
EXTT1=
EXTT2=
EXTT3=
EXTT4=
EXTT5=
EXTT6=
EXTT7=
EXTT8=
PLAYORDER=
